<?xml version="1.0" standalone="no"?>
<!DOCTYPE svg PUBLIC "-//W3C//DTD SVG 20010904//EN"
 "http://www.w3.org/TR/2001/REC-SVG-20010904/DTD/svg10.dtd">
<svg version="1.0" xmlns="http://www.w3.org/2000/svg"
 width="278.000000pt" height="278.000000pt" viewBox="0 0 278.000000 278.000000"
 preserveAspectRatio="xMidYMid meet">
<metadata>
Created by potrace 1.14, written by Peter Selinger 2001-2017
</metadata>
<g transform="translate(0.000000,278.000000) scale(0.100000,-0.100000)"
fill="#000000" stroke="none">
<path d="M1712 2278 c-17 -17 -15 -38 14 -114 14 -38 39 -104 54 -146 l29 -78
-405 0 -404 0 0 75 0 75 73 0 c85 0 100 7 95 46 l-3 29 -204 0 c-183 0 -205
-2 -215 -17 -8 -13 -8 -23 0 -35 9 -14 28 -19 88 -21 l76 -3 0 -72 c0 -42 -5
-78 -12 -85 -6 -6 -42 -82 -79 -169 -77 -179 -53 -162 -199 -148 -396 38 -705
-344 -592 -730 50 -170 193 -314 372 -376 85 -29 237 -31 325 -5 212 63 374
245 407 458 l12 77 141 3 140 3 3 25 c4 26 411 750 422 750 4 0 11 -15 17 -32
6 -18 27 -77 46 -130 l36 -98 -55 -36 c-115 -77 -206 -208 -239 -345 -68 -290
108 -588 400 -675 88 -26 240 -24 325 5 266 91 425 342 390 616 -41 327 -366
556 -683 481 -43 -10 -60 -11 -63 -2 -2 6 -51 138 -109 294 -58 156 -105 287
-105 293 0 5 32 9 71 9 81 0 109 11 109 43 0 42 -17 47 -145 47 -81 0 -125 -4
-133 -12z m46 -436 c-13 -32 -372 -652 -377 -652 -5 0 -224 375 -357 615 l-26
45 382 0 c210 0 380 -4 378 -8z m-635 -382 c103 -181 187 -332 187 -335 0 -3
-39 -4 -87 -3 l-86 3 -14 59 c-29 130 -123 264 -238 340 -30 21 -55 39 -55 42
0 12 94 224 99 224 3 0 90 -148 194 -330z m-424 55 c5 -6 -26 -92 -81 -220
-56 -132 -87 -218 -84 -231 5 -20 14 -21 187 -27 100 -4 216 -7 257 -7 l75 0
-6 -48 c-19 -163 -146 -322 -306 -383 -71 -27 -200 -36 -272 -19 -175 41 -318
181 -364 355 -63 243 79 496 323 576 44 15 80 18 159 16 56 -1 107 -7 112 -12z
m1683 -14 c170 -66 291 -231 305 -416 18 -233 -144 -450 -376 -505 -73 -17
-201 -8 -274 20 -132 50 -246 174 -288 311 -18 59 -21 88 -17 169 4 86 9 107
40 172 19 40 53 93 76 119 50 56 120 106 131 93 5 -5 45 -108 90 -228 46 -121
87 -228 92 -238 12 -22 52 -24 69 -3 11 13 -1 55 -73 253 -48 130 -88 243 -89
251 -8 38 220 39 314 2z m-1470 -112 c59 -58 119 -165 133 -236 l7 -33 -207 0
c-162 0 -206 3 -202 13 2 6 37 87 77 179 l72 167 31 -16 c17 -9 57 -42 89 -74z"/>
</g>
</svg>
